<?xml version="1.0" encoding="utf-8"?>
<!-- Generator: Adobe Illustrator 19.1.0, SVG Export Plug-In . SVG Version: 6.00 Build 0)  -->
<svg version="1.1" id="Layer_1" xmlns="http://www.w3.org/2000/svg" xmlns:xlink="http://www.w3.org/1999/xlink" x="0px" y="0px"
	 viewBox="0 0 48 48" enable-background="new 0 0 48 48" xml:space="preserve">
<g id="_x34_8_10_">
	<polygon opacity="0.4" fill="#231F20" points="42,46 8,46 8,2 31.5,2 42,12.5 	"/>
	<polygon fill="#FFFFFF" points="9,45 9,3 31,3 41,13 41,45 	"/>
	<g>
		<rect x="21" y="37" fill-rule="evenodd" clip-rule="evenodd" fill="#86BFA0" width="8" height="5"/>
		<rect x="30" y="37" fill-rule="evenodd" clip-rule="evenodd" fill="#86BFA0" width="8" height="5"/>
		<rect x="21" y="31" fill-rule="evenodd" clip-rule="evenodd" fill="#86BFA0" width="8" height="5"/>
		<rect x="30" y="31" fill-rule="evenodd" clip-rule="evenodd" fill="#86BFA0" width="8" height="5"/>
		<rect x="21" y="25" fill-rule="evenodd" clip-rule="evenodd" fill="#86BFA0" width="8" height="5"/>
		<rect x="30" y="25" fill-rule="evenodd" clip-rule="evenodd" fill="#86BFA0" width="8" height="5"/>
		<rect x="21" y="19" fill-rule="evenodd" clip-rule="evenodd" fill="#86BFA0" width="8" height="5"/>
		<rect x="30" y="19" fill-rule="evenodd" clip-rule="evenodd" fill="#86BFA0" width="8" height="5"/>
		<rect x="21" y="13" fill-rule="evenodd" clip-rule="evenodd" fill="#86BFA0" width="8" height="5"/>
		<rect x="30" y="13" fill-rule="evenodd" clip-rule="evenodd" fill="#86BFA0" width="8" height="5"/>
	</g>
	<g>
		<rect x="12" y="37" fill-rule="evenodd" clip-rule="evenodd" fill="#999999" width="8" height="5"/>
		<rect x="12" y="31" fill-rule="evenodd" clip-rule="evenodd" fill="#999999" width="8" height="5"/>
		<rect x="12" y="25" fill-rule="evenodd" clip-rule="evenodd" fill="#999999" width="8" height="5"/>
		<rect x="12" y="19" fill-rule="evenodd" clip-rule="evenodd" fill="#999999" width="8" height="5"/>
		<rect x="12" y="13" fill-rule="evenodd" clip-rule="evenodd" fill="#999999" width="8" height="5"/>
		<rect x="21" y="7" fill-rule="evenodd" clip-rule="evenodd" fill="#999999" width="8" height="5"/>
		<rect x="30" y="7" fill-rule="evenodd" clip-rule="evenodd" fill="#999999" width="4" height="5"/>
		<rect x="12" y="7" fill-rule="evenodd" clip-rule="evenodd" fill="#999999" width="8" height="5"/>
	</g>
	<polygon fill="#FFFFFF" points="32,12 32,4 32,4 40,12 40,12 	"/>
	<polygon opacity="0.4" fill="#231F20" points="32,12 32,3.8 31,3 31,12 31,13 32,13 41,13 40.3,12 	"/>
</g>
<g id="_x34_8_1_">
	<g>
		<polygon fill="#FFFFFF" points="9,15.7 9,41.3 22,43.2 22,13.8 		"/>
	</g>
	<g>
		<polygon fill="#207347" points="21,15 21,42 3,39.4 3,17.6 		"/>
	</g>
	<g>
		<g enable-background="new    ">
			<defs>
				<polygon id="SVGID_1_" enable-background="new    " points="7.6,34 7.6,23.2 16.2,23.1 16.2,34 				"/>
			</defs>
			<clipPath id="SVGID_2_">
				<use xlink:href="#SVGID_1_"  overflow="visible"/>
			</clipPath>
			<g clip-path="url(#SVGID_2_)">
				<g>
					<polyline fill="#FFFFFF" points="16.1,23.1 13.8,23.1 12,27 11.9,27 10.4,23.2 7.8,23.2 10.5,28.6 7.6,34 10,34 11.9,30 
						11.9,30 13.7,34 16.2,34 13.3,28.5 16.1,23.1 					"/>
				</g>
			</g>
		</g>
	</g>
</g>
</svg>
