<?xml version="1.0" encoding="utf-8"?>
<!-- Generator: Adobe Illustrator 19.1.0, SVG Export Plug-In . SVG Version: 6.00 Build 0)  -->
<svg version="1.1" id="Layer_1" xmlns="http://www.w3.org/2000/svg" xmlns:xlink="http://www.w3.org/1999/xlink" x="0px" y="0px"
	 viewBox="0 0 48 48" enable-background="new 0 0 48 48" xml:space="preserve">
<g id="_x34_8_1_">
	<polygon opacity="0.4" fill="#231F20" points="42,46 8,46 8,2 31.5,2 42,12.5 	"/>
	<polygon fill="#FFFFFF" points="9,45 9,3 31,3 41,13 41,45 	"/>
	<g>
		<rect x="12" y="30" fill="#F5BA9D" width="26" height="2"/>
		<rect x="12" y="34" fill="#F5BA9D" width="26" height="2"/>
		<rect x="12" y="38" fill="#F5BA9D" width="26" height="2"/>
		<rect x="14" y="30" fill="#FFFFFF" width="2" height="10"/>
	</g>
	<path fill="#949494" d="M25,9c-5,0-9,4-9,9s4,9,9,9c5,0,9-4,9-9h-9V9z"/>
	<path fill="#F5BA9D" d="M27,7v9h9C36,11,32,7,27,7z"/>
	<polygon fill="#FFFFFF" points="32,12 32,4 32,4 40,12 40,12 	"/>
	<polygon opacity="0.4" fill="#231F20" points="32,12 32,3.8 31,3 31,12 31,13 32,13 41,13 40.3,12 	"/>
</g>
<g id="_x34_8_5_">
	<polygon fill="#FFFFFF" points="9,15.7 9,41.3 22,43.2 22,13.8 	"/>
	<polygon fill="#D04727" points="21,15 21,42 3,39.4 3,17.6 	"/>
	<g>
		<g enable-background="new    ">
			<defs>
				<polygon id="SVGID_1_" enable-background="new    " points="9.1,34 9.1,23.2 15.9,23.1 15.9,34 				"/>
			</defs>
			<clipPath id="SVGID_2_">
				<use xlink:href="#SVGID_1_"  overflow="visible"/>
			</clipPath>
			<g clip-path="url(#SVGID_2_)">
				<path fill="#FFFFFF" d="M11.2,28.4l0-3.4l0.8,0c0.3,0,0.5,0,0.7,0.1c0.2,0.1,0.4,0.2,0.5,0.3c0.1,0.1,0.2,0.3,0.3,0.5
					c0.1,0.2,0.1,0.5,0.1,0.7c0,0.3,0,0.5-0.1,0.8c-0.1,0.2-0.2,0.4-0.3,0.5c-0.1,0.1-0.3,0.3-0.5,0.3c-0.2,0.1-0.5,0.1-0.7,0.1
					L11.2,28.4 M12.4,23.1l-3.3,0l0,10.8l2.1,0l0-3.7l1,0c0.2,0,0.4,0,0.5,0c0.2,0,0.3,0,0.5-0.1c0.2,0,0.3-0.1,0.5-0.1
					c0.2-0.1,0.3-0.1,0.4-0.2c0.1-0.1,0.3-0.2,0.4-0.3c0.1-0.1,0.2-0.2,0.4-0.3c0.1-0.1,0.2-0.2,0.3-0.3c0.1-0.1,0.2-0.3,0.3-0.4
					c0.1-0.1,0.1-0.3,0.2-0.4c0.1-0.1,0.1-0.3,0.1-0.5c0-0.2,0.1-0.3,0.1-0.5c0-0.2,0-0.3,0-0.5c0-0.6-0.1-1.1-0.2-1.5
					c-0.1-0.4-0.4-0.8-0.7-1.1c-0.3-0.3-0.7-0.5-1.1-0.6C13.5,23.2,12.9,23.1,12.4,23.1"/>
			</g>
		</g>
	</g>
</g>
</svg>
