<?xml version="1.0" encoding="utf-8"?>
<!-- Generator: Adobe Illustrator 17.0.0, SVG Export Plug-In . SVG Version: 6.00 Build 0)  -->
<!DOCTYPE svg PUBLIC "-//W3C//DTD SVG 1.1//EN" "http://www.w3.org/Graphics/SVG/1.1/DTD/svg11.dtd">
<svg version="1.1" id="Layer_1" xmlns="http://www.w3.org/2000/svg" xmlns:xlink="http://www.w3.org/1999/xlink" x="0px" y="0px"
	 width="500px" height="500px" viewBox="0 0 500 500" enable-background="new 0 0 500 500" xml:space="preserve">
<rect x="39.746" y="41.339" stroke="#000000" stroke-miterlimit="10" width="122.881" height="122.034"/>
<rect x="188.746" y="41.339" stroke="#000000" stroke-miterlimit="10" width="122.881" height="122.034"/>
<rect x="337.746" y="41.339" stroke="#000000" stroke-miterlimit="10" width="122.881" height="122.034"/>
<rect x="39.746" y="189.339" stroke="#000000" stroke-miterlimit="10" width="122.881" height="122.034"/>
<path stroke="#000000" stroke-miterlimit="10" d="M188.746,189.339v122.034h122.881V189.339H188.746z M301.831,300.797h-103.39
	V199.949h103.39V300.797z"/>
<path stroke="#000000" stroke-miterlimit="10" d="M337.746,189.339v122.034h122.881V189.339H337.746z M450.831,300.797h-103.39
	V199.949h103.39V300.797z"/>
<rect x="39.746" y="338.339" stroke="#000000" stroke-miterlimit="10" width="122.881" height="122.034"/>
<path stroke="#000000" stroke-miterlimit="10" d="M188.746,338.339v122.034h122.881V338.339H188.746z M301.831,449.797h-103.39
	V348.949h103.39V449.797z"/>
<path stroke="#000000" stroke-miterlimit="10" d="M337.746,338.339v122.034h122.881V338.339H337.746z M450.831,449.797h-103.39
	V348.949h103.39V449.797z"/>
</svg>
