<?xml version="1.0" encoding="utf-8"?>
<!-- Generator: Adobe Illustrator 19.1.0, SVG Export Plug-In . SVG Version: 6.00 Build 0)  -->
<!DOCTYPE svg PUBLIC "-//W3C//DTD SVG 1.1//EN" "http://www.w3.org/Graphics/SVG/1.1/DTD/svg11.dtd">
<svg version="1.1" id="Layer_1" xmlns="http://www.w3.org/2000/svg" xmlns:xlink="http://www.w3.org/1999/xlink" x="0px" y="0px"
	 viewBox="0 0 48 48" style="enable-background:new 0 0 48 48;" xml:space="preserve">
<style type="text/css">
	.st0{opacity:0.4;fill:#231F20;}
	.st1{fill:#FFFFFF;}
	.st2{fill:#999999;}
	.st3{fill:#2B579A;}
	.st4{enable-background:new    ;}
	.st5{clip-path:url(#SVGID_2_);}
</style>
<polygon class="st0" points="42,46 8,46 8,2 31.5,2 42,12.5 "/>
<polygon class="st1" points="9,45 9,3 31,3 41,13 41,45 "/>
<g>
	<rect x="12" y="14" class="st2" width="26" height="2"/>
	<rect x="12" y="9" class="st2" width="21" height="2"/>
	<rect x="12" y="19" class="st2" width="26" height="2"/>
	<rect x="12" y="29" class="st2" width="26" height="2"/>
	<rect x="12" y="24" class="st2" width="26" height="2"/>
	<rect x="12" y="39" class="st2" width="26" height="2"/>
	<rect x="12" y="34" class="st2" width="26" height="2"/>
</g>
<polygon class="st1" points="32,12 32,4 32,4 40,12 40,12 "/>
<polygon class="st0" points="32,12 32,3.8 31,3 31,12 31,13 32,13 41,13 40.2,12 "/>
<g id="_x34_8_8_">
	<polygon class="st1" points="9,14 9,41.3 22,43.2 22,13.8 	"/>
	<polygon class="st3" points="21,15 21,42 3,39.4 3,17.6 	"/>
	<g>
		<g class="st4">
			<defs>
				<polygon id="SVGID_1_" class="st4" points="5.7,34 5.7,23.2 18.8,23.1 18.8,34 				"/>
			</defs>
			<clipPath id="SVGID_2_">
				<use xlink:href="#SVGID_1_"  style="overflow:visible;"/>
			</clipPath>
			<g class="st5">
				<polyline class="st1" points="18.8,23.1 16.7,23.1 15.2,31.2 15.2,31.2 13.6,23.1 11.3,23.1 9.4,31.1 9.4,31.1 8,23.2 5.7,23.2 
					8.1,34 10.5,34 12.3,26.3 12.3,26.3 14,34 16.3,34 18.8,23.1 				"/>
			</g>
		</g>
	</g>
</g>
</svg>
